<?xml version="1.0" encoding="UTF-8"?>
<svg width="25px" height="25px" viewBox="0 0 25 25" version="1.1" xmlns="http://www.w3.org/2000/svg" xmlns:xlink="http://www.w3.org/1999/xlink">
    <!-- Generator: Sketch 49.3 (51167) - http://www.bohemiancoding.com/sketch -->
    <title>dribbble</title>
    <desc>Created with Sketch.</desc>
    <defs></defs>
    <g id="Symbols" stroke="none" stroke-width="1" fill="none" fill-rule="evenodd">
        <g id="Footer" transform="translate(-752.000000, 0.000000)" fill-rule="nonzero">
            <g id="dribbble" transform="translate(752.000000, 0.000000)">
                <circle id="Oval" fill="#4A4A4A" cx="12.5" cy="12.5" r="12.5"></circle>
                <path d="M11.8241065,4.05405405 C7.53969727,4.05405405 4.05405405,7.54000495 4.05405405,11.8244334 C4.05405405,16.1088618 7.53969727,19.5945946 11.8241065,19.5945946 C16.1087336,19.5945946 19.5945946,16.1090799 19.5945946,11.8244334 C19.5945946,7.54000495 16.1087336,4.05405405 11.8241065,4.05405405 Z M17.377693,7.43243243 C18.3198877,8.54645786 18.8925217,9.95340371 18.9189189,11.4864865 C18.6053943,11.4250748 17.2776615,11.188927 15.6910509,11.188927 C15.1790842,11.188927 14.6402571,11.2134475 14.1000408,11.2770683 C14.0544245,11.1712546 14.0088083,11.0658828 13.9608766,10.9594064 C13.8207862,10.6450582 13.6698127,10.3331399 13.5135135,10.0258606 C15.955486,9.06602712 17.1334031,7.73396817 17.377693,7.43243243 Z M11.6854115,5.40540541 C13.4198317,5.40540541 15.0052482,6.03590704 16.2162162,7.07431465 C16.0245424,7.33017686 14.9849399,8.6016736 12.6645454,9.45945946 C11.5904873,7.53848352 10.4148877,5.94771719 10.1351351,5.57843613 C10.6337153,5.46546381 11.1526038,5.40540541 11.6854115,5.40540541 Z M9.05118302,6.08108108 C9.28064527,6.40655563 10.4202268,8.04439087 11.4864865,9.98563844 C8.62494417,10.7603179 6.08385396,10.8108108 5.4705559,10.8108108 L5.40540541,10.8108108 C5.84599944,8.71967664 7.2179143,6.98199281 9.05118302,6.08108108 Z M5.40540541,11.8978685 C5.40540541,11.8441653 5.40630069,11.790462 5.40809126,11.7369753 C5.44837909,11.7374084 5.50791554,11.7374084 5.58513387,11.7374084 C6.42222537,11.7374084 9.32787291,11.6704959 12.3221537,10.8108108 C12.5038965,11.1546849 12.6769104,11.503756 12.8378378,11.8526106 C12.7621863,11.8736155 12.6876538,11.8946204 12.6135689,11.9180073 C9.24214937,12.9715005 7.38913319,15.7603882 7.10398491,16.2162162 C6.04754859,15.064628 5.40540541,13.5527082 5.40540541,11.8978685 Z M12.2448015,18.2432432 C10.6892374,18.2432432 9.25362627,17.7362902 8.10810811,16.8863156 C8.30187847,16.5207724 9.7082327,14.0843229 13.4231774,12.8402199 C13.4254279,12.8393537 13.4279035,12.8384875 13.4306041,12.8378378 C14.3620972,15.1714242 14.7566145,17.1299389 14.8648649,17.7369399 C14.0587261,18.0630703 13.1733689,18.2432432 12.2448015,18.2432432 Z M15.4593246,17.5675676 C15.3704855,17.0595198 15.0133698,15.2025932 14.1891892,12.9377386 C14.6514164,12.8660992 15.1011095,12.8378378 15.5228753,12.8378378 C16.9080178,12.8378378 17.9914591,13.1399499 18.2432432,13.2166281 C17.943961,15.0150602 16.9104367,16.5714084 15.4593246,17.5675676 Z" id="Shape" fill="#FFFFFF"></path>
            </g>
        </g>
    </g>
</svg>