<?xml version="1.0" encoding="UTF-8"?>
<svg width="25px" height="25px" viewBox="0 0 25 25" version="1.1" xmlns="http://www.w3.org/2000/svg" xmlns:xlink="http://www.w3.org/1999/xlink">
    <!-- Generator: Sketch 49.3 (51167) - http://www.bohemiancoding.com/sketch -->
    <title>email</title>
    <desc>Created with Sketch.</desc>
    <defs></defs>
    <g id="Mock-ups" stroke="none" stroke-width="1" fill="none" fill-rule="evenodd">
        <g id="Mobile" transform="translate(-31.000000, -793.000000)" fill-rule="nonzero">
            <g id="email" transform="translate(31.000000, 793.000000)">
                <path d="M12.5,0 C5.59609375,0 0,5.59609375 0,12.5 C0,19.403125 5.59609375,25 12.5,25 C19.4039062,25 25,19.403125 25,12.5 C25,5.59609375 19.4039062,0 12.5,0 Z" id="Shape" fill="#4A4A4A"></path>
                <g id="Group" transform="translate(4.687500, 7.031250)" fill="#FFFFFF">
                    <polygon id="Shape" points="0.4046875 10.0117188 4.45859375 4.91484375 0.4046875 2.43671875"></polygon>
                    <polygon id="Shape" points="10.546875 5.2703125 7.80390625 6.959375 5.05625 5.2796875 0.8671875 10.546875 14.7398438 10.546875"></polygon>
                    <polygon id="Shape" points="7.803125 6.14375 15.2203125 1.57578125 15.2203125 0.390625 0.4046875 0.390625 0.4046875 1.621875"></polygon>
                    <polygon id="Shape" points="11.1429688 4.903125 15.2203125 10.0335938 15.2203125 2.3921875"></polygon>
                </g>
            </g>
        </g>
    </g>
</svg>