<?xml version="1.0" encoding="UTF-8"?>
<svg width="106px" height="117px" viewBox="0 0 106 117" version="1.1" xmlns="http://www.w3.org/2000/svg" xmlns:xlink="http://www.w3.org/1999/xlink">
    <!-- Generator: Sketch 49.3 (51167) - http://www.bohemiancoding.com/sketch -->
    <title>Group 4</title>
    <desc>Created with Sketch.</desc>
    <defs></defs>
    <g id="Mock-ups" stroke="none" stroke-width="1" fill="none" fill-rule="evenodd">
        <g id="About-Me-Copy" transform="translate(-1109.000000, -3304.000000)" fill="#4A4A4A">
            <g id="Group-4" transform="translate(1083.000000, 3304.000000)">
                <g id="code" transform="translate(30.000000, 0.000000)" fill-rule="nonzero">
                    <path d="M59.7748887,0.984660593 L56.543953,0.080769874 C56.1280882,-0.0607540127 55.7184276,-0.0162484747 55.3200806,0.213914057 C54.9204562,0.444262804 54.6505729,0.790065249 54.5118905,1.25076274 L35.0791973,69.8876132 C34.9405149,70.3484969 34.9839444,70.7831242 35.2096683,71.1901916 C35.4353922,71.5980039 35.7735219,71.872672 36.2256996,72.0141958 L39.4557229,72.918459 C39.8725001,73.0611002 40.2807009,73.0164084 40.6801428,72.7858735 C41.0797671,72.5544074 41.349103,72.2097223 41.487603,71.7497696 L60.9208435,3.11180185 C61.0593435,2.65110436 61.0162789,2.21647705 60.7901901,1.80847859 C60.5642837,1.40066633 60.226519,1.12599826 59.7748887,0.984660593 Z" id="Shape"></path>
                    <path d="M31,13.4084203 C31,12.9482333 30.822209,12.5406869 30.4671866,12.1868972 L27.8036794,9.53142855 C27.4486571,9.17745287 27.0400922,9 26.5785445,9 C26.1169968,9 25.7082453,9.17763888 25.3534095,9.53142855 L0.532813374,34.278849 C0.17723134,34.6328247 0,35.040185 0,35.500372 C0,35.960559 0.177791017,36.3679194 0.532813374,36.721709 L25.353223,61.4691295 C25.7080588,61.8236632 26.116064,62 26.5783579,62 C27.0406519,62 27.4486571,61.8231052 27.8034929,61.4691295 L30.4670001,58.8151489 C30.8220224,58.4613592 30.9998134,58.0538128 30.9998134,57.5930678 C30.9998134,57.1334389 30.8220224,56.7260785 30.4670001,56.3722888 L9.53448639,35.500372 L30.4671866,14.6299433 C30.8227687,14.2761536 31,13.8686072 31,13.4084203 Z" id="Shape"></path>
                    <path d="M96.4675245,34.2785828 L71.6447254,9.53142296 C71.2898661,9.177637 70.8810877,9 70.4202557,9 C69.9579311,9 69.5506452,9.177637 69.1944799,9.53142296 L66.5319158,12.1866777 C66.1770565,12.5406496 66,12.9474477 66,13.4081878 C66,13.868928 66.1768699,14.2759121 66.5319158,14.629698 L87.466375,35.500465 L66.5319158,56.3723481 C66.1770565,56.726134 66,57.1336761 66,57.5931142 C66,58.0540404 66.1768699,58.4613965 66.5319158,58.8151824 L69.1944799,61.4691351 C69.5506452,61.823665 69.9581177,62 70.4202557,62 C70.8812742,62 71.2898661,61.823107 71.6447254,61.4691351 L96.4675245,36.7221612 C96.8225704,36.3683752 97,35.9602752 97,35.500093 C97,35.0397248 96.8225704,34.6323688 96.4675245,34.2785828 Z" id="Shape"></path>
                </g>
                <text id="Front-End-Developmen" font-family="Lato-Regular, Lato" font-size="18" font-weight="normal">
                    <tspan x="39.413" y="91">Front End </tspan>
                    <tspan x="24.941" y="113">Development</tspan>
                </text>
            </g>
        </g>
    </g>
</svg>