<?xml version="1.0" encoding="UTF-8"?>
<svg width="25px" height="25px" viewBox="0 0 25 25" version="1.1" xmlns="http://www.w3.org/2000/svg" xmlns:xlink="http://www.w3.org/1999/xlink">
    <!-- Generator: Sketch 49.3 (51167) - http://www.bohemiancoding.com/sketch -->
    <title>github-logo</title>
    <desc>Created with Sketch.</desc>
    <defs></defs>
    <g id="Symbols" stroke="none" stroke-width="1" fill="none" fill-rule="evenodd">
        <g id="Footer" transform="translate(-696.000000, 0.000000)" fill="#4A4A4A" fill-rule="nonzero">
            <g id="github-logo" transform="translate(696.000000, 0.000000)">
                <path d="M22.6536432,6.1646748 C21.567948,4.26821653 20.0952718,2.76678788 18.2352271,1.66005015 C16.3749054,0.553255968 14.3439888,0 12.1410376,0 C9.9383632,0 7.90678214,0.553425315 6.04684811,1.66005015 C4.18663724,2.76673143 2.71401644,4.26821653 1.62832127,6.1646748 C0.542792214,8.06107662 0,10.1319621 0,12.3772747 C0,15.0744046 0.771857947,17.4997329 2.31596143,19.6538806 C3.85989881,21.8081976 5.85443733,23.2989009 8.29941088,24.12616 C8.58401274,24.1800123 8.79469563,24.1421351 8.93168103,24.0134879 C9.06872181,23.8846715 9.13715914,23.7233404 9.13715914,23.5301722 C9.13715914,23.4979399 9.13444601,23.2079617 9.12918586,22.659899 C9.1237596,22.1118364 9.12121258,21.6337139 9.12121258,21.2257575 L8.75759772,21.2898835 C8.52576349,21.3331798 8.23329909,21.3515257 7.88020453,21.3463324 C7.52727609,21.3413085 7.16089273,21.3036006 6.78155278,21.233491 C6.40204673,21.1640024 6.04906291,21.0028407 5.72232448,20.7503446 C5.39575216,20.4978485 5.16391792,20.1673401 5.02687715,19.7593272 L4.86879577,19.3884577 C4.76342664,19.1415501 4.59753809,18.8672647 4.37090863,18.5666177 C4.14427918,18.2656885 3.91510271,18.0616821 3.68326847,17.9542597 L3.57258382,17.8734813 C3.49883097,17.8197984 3.43039363,17.7550515 3.36710571,17.6799179 C3.30387316,17.6047844 3.2565318,17.5295944 3.22491553,17.4542916 C3.19324388,17.3789322 3.21948926,17.3171207 3.30392853,17.268631 C3.3883678,17.2201414 3.54096755,17.1966022 3.76239222,17.1966022 L4.07844424,17.2447531 C4.28923787,17.2878237 4.54997525,17.4164708 4.8609886,17.6314848 C5.17183584,17.8463294 5.42736844,18.1256387 5.62764176,18.4692998 C5.87016241,18.9099401 6.16234996,19.2456984 6.50503495,19.4767438 C6.8474431,19.7077893 7.19267511,19.8231145 7.54039878,19.8231145 C7.88812244,19.8231145 8.18844938,19.7962448 8.44149033,19.7427877 C8.69425443,19.6890483 8.93140418,19.6082699 9.15282886,19.500904 C9.24767768,18.7807285 9.50592341,18.2274726 9.92734456,17.8407409 C9.32669069,17.7763892 8.78666698,17.6794663 8.30699657,17.5505934 C7.82760302,17.4215512 7.33220754,17.2121256 6.82114234,16.9217523 C6.30980029,16.6317742 5.88561064,16.2716865 5.54846265,15.8421101 C5.21125928,15.4123079 4.93451997,14.8480444 4.7186323,14.1498276 C4.50263389,13.4513286 4.394607,12.6455765 4.394607,11.7323457 C4.394607,10.4320446 4.81098948,9.32553267 5.64358833,8.41218897 C5.25356197,7.43460639 5.29038303,6.33870686 5.75416224,5.12460326 C6.0598047,5.02779334 6.5130636,5.10044312 7.11371748,5.34210099 C7.71448209,5.58387176 8.15434146,5.79098288 8.43373853,5.96270053 C8.7131356,6.13436173 8.93699655,6.27983062 9.10565361,6.39780889 C10.0859796,6.11855603 11.0976451,5.97890137 12.1409268,5.97890137 C13.1842086,5.97890137 14.1960955,6.11855603 15.1764769,6.39780889 L15.7771862,6.01119016 C16.1879763,5.75321855 16.6730729,5.51681043 17.2313134,5.30190935 C17.7898861,5.08712117 18.2170103,5.02796269 18.5122432,5.12477261 C18.9863213,6.33893265 19.0285686,7.43477574 18.6384315,8.41235832 C19.470975,9.32570201 19.8875235,10.4324962 19.8875235,11.7325151 C19.8875235,12.6457459 19.7791091,13.4540381 19.5634429,14.1578998 C19.3474998,14.8618744 19.0683796,15.4255734 18.7259715,15.8501823 C18.3831757,16.2747347 17.9562729,16.632 17.4452077,16.9219217 C16.9340318,17.2120692 16.4384702,17.4214947 15.9590767,17.550537 C15.4794616,17.6795792 14.9394379,17.7765585 14.338784,17.8410232 C14.8866149,18.3243389 15.1605857,19.0872462 15.1605857,20.1294064 L15.1605857,23.5297206 C15.1605857,23.7228888 15.2264761,23.8841634 15.3583674,24.0130363 C15.4900927,24.1416835 15.6981178,24.1795607 15.9827197,24.125652 C18.4280254,23.2985058 20.422564,21.807746 21.966446,19.653429 C23.5101619,17.4992814 24.2822967,15.0739531 24.2822967,12.3768232 C24.281743,10.1317927 23.7386739,8.06107662 22.6536432,6.1646748 Z" id="Shape"></path>
            </g>
        </g>
    </g>
</svg>