<?xml version="1.0" encoding="UTF-8"?>
<svg width="56px" height="75px" viewBox="0 0 56 75" version="1.1" xmlns="http://www.w3.org/2000/svg" xmlns:xlink="http://www.w3.org/1999/xlink">
    <!-- Generator: Sketch 49.3 (51167) - http://www.bohemiancoding.com/sketch -->
    <title>invision</title>
    <desc>Created with Sketch.</desc>
    <defs></defs>
    <g id="Mock-ups" stroke="none" stroke-width="1" fill="none" fill-rule="evenodd">
        <g id="case-study" transform="translate(-1099.000000, -1414.000000)">
            <g id="invision" transform="translate(1098.000000, 1414.000000)">
                <text id="Invision" font-family="Lato-Bold, Lato" font-size="16" font-weight="bold" letter-spacing="0.266666651" fill="#4A4A4A">
                    <tspan x="0" y="74">Invision</tspan>
                </text>
                <g transform="translate(5.000000, 0.000000)" fill-rule="nonzero" id="Shape">
                    <path d="M44.5580352,0 L4.44196484,0 C1.98871094,0 0,1.98871094 0,4.44196484 L0,44.5580352 C0,47.0112891 1.98871094,49 4.44196484,49 L44.5580352,49 C47.0112891,49 49,47.0112891 49,44.5580352 L49,4.44196484 C49,1.98871094 47.0112891,0 44.5580352,0" fill="#DC395F"></path>
                    <path d="M17.3774353,15.8502844 C18.9928213,15.8502844 20.3460629,14.5840548 20.3460629,12.9244778 C20.3460629,11.2660397 18.9928213,10 17.3774353,10 C15.7620494,10 14.4091874,11.2660397 14.4091874,12.9244778 C14.4091874,14.583865 15.7620494,15.8502844 17.3774353,15.8502844 M11.2222644,31.5158414 C11.0478179,32.2581139 10.9603099,33.0596164 10.9603099,33.7134237 C10.9603099,36.2897358 12.3572107,38 15.3258382,38 C17.7878307,38 19.7838099,36.537856 21.2209529,34.176822 L20.3434054,37.6989145 L25.2322732,37.6989145 L28.0264543,26.4909792 C28.7249996,23.6532581 30.0782412,22.1802933 32.130218,22.1802933 C33.7454141,22.1802933 34.7493831,23.184924 34.7493831,24.8433621 C34.7493831,25.3238459 34.705724,25.8472334 34.5310877,26.4150434 L33.0903381,31.5667184 C32.8720427,32.3089909 32.7851041,33.0516431 32.7851041,33.749683 C32.7851041,36.1953855 34.2252843,37.9842433 37.237571,37.9842433 C39.8132668,37.9842433 41.8648639,36.3259951 43,32.3528439 L41.0793801,31.6113307 C40.1188804,34.2730706 39.2893579,34.7543138 38.6344717,34.7543138 C37.9795855,34.7543138 37.6303129,34.3180626 37.6303129,33.4453703 C37.6303129,33.0524025 37.7180107,32.6163411 37.8486083,32.091245 L39.2458886,27.0722678 C39.5949714,25.8937441 39.7261385,24.8486776 39.7261385,23.8884693 C39.7261385,20.1338233 37.4558664,18.1742998 34.705724,18.1742998 C32.130218,18.1742998 29.5106732,20.4977457 28.2012804,22.9430685 L29.1614005,18.5539788 L21.6968369,18.5539788 L20.649019,22.4198708 L24.1415555,22.4198708 L21.9908713,31.0309913 C20.3020242,34.7856373 17.1997619,34.8465758 16.8104368,34.7594394 C16.171116,34.6151614 15.7622392,34.3723567 15.7622392,33.5416189 C15.7622392,33.0622741 15.8495574,32.3737262 16.0678528,31.543558 L19.3422837,18.5539788 L11.0478179,18.5539788 L10,22.4198708 L13.4484978,22.4198708 L11.2224542,31.5158414" fill="#FFFFFF"></path>
                </g>
            </g>
        </g>
    </g>
</svg>