<?xml version="1.0" encoding="UTF-8"?>
<svg width="25px" height="25px" viewBox="0 0 25 25" version="1.1" xmlns="http://www.w3.org/2000/svg" xmlns:xlink="http://www.w3.org/1999/xlink">
    <!-- Generator: Sketch 49.3 (51167) - http://www.bohemiancoding.com/sketch -->
    <title>linkedin-button</title>
    <desc>Created with Sketch.</desc>
    <defs></defs>
    <g id="Symbols" stroke="none" stroke-width="1" fill="none" fill-rule="evenodd">
        <g id="Footer" transform="translate(-581.000000, 0.000000)" fill="#4A4A4A" fill-rule="nonzero">
            <g id="linkedin-button" transform="translate(581.000000, 0.000000)">
                <path d="M12.5,0 C5.59687454,0 0,5.59687454 0,12.5 C0,19.4031255 5.59687454,25 12.5,25 C19.4031255,25 25,19.4031255 25,12.5 C25,5.59533257 19.4031255,0 12.5,0 Z M9.61538462,18.5897436 L6.41025641,18.5897436 L6.41025641,7.69230769 L9.61538462,7.69230769 L9.61538462,18.5897436 Z M8.01194893,7.05128205 C7.12647455,7.05128205 6.41025641,6.333711 6.41025641,5.44871795 C6.41025641,4.5637249 7.12821772,3.84615385 8.01194893,3.84615385 C8.8974233,3.84783987 9.61538462,4.56541092 9.61538462,5.44871795 C9.61538462,6.333711 8.8974233,7.05128205 8.01194893,7.05128205 Z M20.5128205,18.5897436 L17.3076923,18.5897436 L17.3076923,11.8520323 C17.3076923,11.0627252 17.0753167,10.510113 16.0769134,10.510113 C14.421448,10.510113 14.1025641,11.8520323 14.1025641,11.8520323 L14.1025641,18.5897436 L10.8974359,18.5897436 L10.8974359,7.69230769 L14.1025641,7.69230769 L14.1025641,8.73377517 C14.5608839,8.39286702 15.7051018,7.69384401 17.3076923,7.69384401 C18.3461604,7.69384401 20.5128205,8.29787158 20.5128205,11.9469253 L20.5128205,18.5897436 Z" id="Shape"></path>
            </g>
        </g>
    </g>
</svg>