<?xml version="1.0" encoding="UTF-8"?>
<svg width="447px" height="157px" viewBox="0 0 447 157" version="1.1" xmlns="http://www.w3.org/2000/svg" xmlns:xlink="http://www.w3.org/1999/xlink">
    <!-- Generator: Sketch 49.3 (51167) - http://www.bohemiancoding.com/sketch -->
    <title>Group 9</title>
    <desc>Created with Sketch.</desc>
    <defs></defs>
    <g id="Mock-ups" stroke="none" stroke-width="1" fill="none" fill-rule="evenodd">
        <g id="About-Me-Copy" transform="translate(-115.000000, -3257.000000)">
            <g id="Group-9" transform="translate(115.000000, 3257.000000)">
                <rect id="Rectangle-7" fill="#EDF0FF" x="0" y="0" width="447" height="157"></rect>
                <g id="Group-4" transform="translate(21.000000, 43.000000)" fill="#4A4A4A">
                    <g id="noun_user-research_1401998" fill-rule="nonzero">
                        <g id="Group">
                            <path d="M40.8000504,35.9 C44.2738986,32.9794467 45.5512413,28.198662 43.9969738,23.9346895 C42.4427062,19.6707169 38.3884588,16.8333501 33.850035,16.8333501 C29.3116112,16.8333501 25.2573637,19.6707169 23.7030962,23.9346895 C22.1488287,28.198662 23.4261714,32.9794467 26.9000195,35.9 C21.5153862,38.5345636 18.1009477,44.0054131 18.1,50 L22.1000089,50 C22.05726,44.0477249 26.4903388,39.0121029 32.4000318,38.3 L35.3000382,38.3 C41.1700041,39.0586154 45.5488786,44.0814309 45.5000609,50 L49.50014,50 C49.5178919,44.0278348 46.145801,38.5627341 40.8000504,35.9 Z M27,27.6 C27.0239804,24.0327018 29.8006194,21.0903787 33.360546,20.8599153 C36.9204727,20.629452 40.0533064,23.1892064 40.5370401,26.723636 C41.0207737,30.2580657 38.690937,33.5654591 35.2,34.3 L32.5,34.3 C29.3175435,33.6406816 27.026625,30.8499263 27,27.6 Z" id="Shape"></path>
                            <path d="M33.5,0.5 C18.8124598,0.507117647 5.89740075,10.2204491 1.81581091,24.3294715 C-2.26577894,38.4384938 3.46861222,53.5469126 15.8838483,61.3945747 C28.2990844,69.2422367 44.4065957,67.9400693 55.4,58.2 L76,78.9 C76.5180351,79.4180351 77.2730877,79.6203508 77.9807368,79.4307368 C78.6883859,79.2411228 79.2411228,78.6883859 79.4307368,77.9807368 C79.6203508,77.2730877 79.4180351,76.5180351 78.9,76 L58.2,55.4 C66.8218922,45.6813481 68.9391277,31.80823 63.6086121,19.9602419 C58.2780965,8.11225381 46.4918893,0.49441868 33.5,0.5 Z M4.5,33.5 C4.49798447,20.4435519 13.2213088,8.99561429 25.8103989,5.53358412 C38.399489,2.07155395 51.7498802,7.44916645 58.4243602,18.6706707 C65.0988402,29.892175 63.4514849,44.1903526 54.4,53.6 L54,54 L53.7,54.5 C45.3151207,62.6405003 32.8633108,64.9526409 22.1149675,60.3649334 C11.3666241,55.7772258 4.42225176,45.186227 4.5,33.5 Z" id="Shape"></path>
                        </g>
                    </g>
                    <text id="User-Research" font-family="Lato-Regular, Lato" font-size="18" font-weight="normal">
                        <tspan x="99.681" y="34">User </tspan>
                        <tspan x="81.969" y="56">Research</tspan>
                    </text>
                </g>
                <g id="Group-5" transform="translate(224.000000, 44.000000)" fill="#4A4A4A">
                    <text id="Wireframing" font-family="Lato-Regular, Lato" font-size="18" font-weight="normal">
                        <tspan x="93.663" y="44">Wireframing</tspan>
                    </text>
                    <g id="noun_Wireframe_986238" fill-rule="nonzero">
                        <g id="Group">
                            <path d="M0,0.0266666667 L0,77.9733333 L80,77.9733333 L80,0.0266666667 L0,0.0266666667 Z M78.1538462,1.87666667 L78.1538462,8.29 L1.84615385,8.29 L1.84615385,1.87666667 L78.1538462,1.87666667 Z M1.84615385,76.1233333 L1.84615385,10.14 L78.1538462,10.14 L78.1538462,76.1233333 L1.84615385,76.1233333 Z" id="Shape"></path>
                            <rect id="Rectangle-path" x="4.92307692" y="4.22" width="1.84615385" height="1.85"></rect>
                            <rect id="Rectangle-path" x="9.23076923" y="4.22" width="1.84615385" height="1.85"></rect>
                            <rect id="Rectangle-path" x="13.4153846" y="4.22" width="1.84615385" height="1.85"></rect>
                            <path d="M41.6,41.4666667 L73.9692308,41.4666667 L73.9692308,17.7866667 L41.6,17.7866667 L41.6,41.4666667 Z M59.4461538,29.6266667 L72.2461538,20.5 L72.2461538,38.7533333 L59.4461538,29.6266667 Z M70.2769231,39.6166667 L45.4153846,39.6166667 L57.8461538,30.7366667 L70.2769231,39.6166667 Z M57.8461538,28.5166667 L45.4153846,19.6366667 L70.2769231,19.6366667 L57.8461538,28.5166667 Z M56.2461538,29.6266667 L43.4461538,38.7533333 L43.4461538,20.5 L56.2461538,29.6266667 Z" id="Shape"></path>
                            <path d="M6.03076923,41.4666667 L38.4,41.4666667 L38.4,17.7866667 L6.03076923,17.7866667 L6.03076923,41.4666667 Z M23.7538462,29.6266667 L36.5538462,20.5 L36.5538462,38.7533333 L23.7538462,29.6266667 Z M34.5846154,39.6166667 L9.72307692,39.6166667 L22.1538462,30.7366667 L34.5846154,39.6166667 Z M22.1538462,28.5166667 L9.72307692,19.6366667 L34.5846154,19.6366667 L22.1538462,28.5166667 Z M20.5538462,29.6266667 L7.75384615,38.7533333 L7.75384615,20.5 L20.5538462,29.6266667 Z" id="Shape"></path>
                            <path d="M41.6,69.34 L73.9692308,69.34 L73.9692308,45.66 L41.6,45.66 L41.6,69.34 Z M59.4461538,57.5 L72.2461538,48.3733333 L72.2461538,66.6266667 L59.4461538,57.5 Z M70.2769231,67.49 L45.4153846,67.49 L57.8461538,58.61 L70.2769231,67.49 Z M57.8461538,56.39 L45.4153846,47.51 L70.2769231,47.51 L57.8461538,56.39 Z M56.2461538,57.5 L43.4461538,66.6266667 L43.4461538,48.3733333 L56.2461538,57.5 Z" id="Shape"></path>
                            <path d="M6.03076923,69.34 L38.4,69.34 L38.4,45.66 L6.03076923,45.66 L6.03076923,69.34 Z M23.7538462,57.5 L36.5538462,48.3733333 L36.5538462,66.6266667 L23.7538462,57.5 Z M34.5846154,67.49 L9.72307692,67.49 L22.1538462,58.61 L34.5846154,67.49 Z M22.1538462,56.39 L9.72307692,47.51 L34.5846154,47.51 L22.1538462,56.39 Z M20.5538462,57.5 L7.75384615,66.6266667 L7.75384615,48.3733333 L20.5538462,57.5 Z" id="Shape"></path>
                        </g>
                    </g>
                </g>
            </g>
        </g>
    </g>
</svg>