<?xml version="1.0" encoding="UTF-8"?>
<svg width="471px" height="157px" viewBox="0 0 471 157" version="1.1" xmlns="http://www.w3.org/2000/svg" xmlns:xlink="http://www.w3.org/1999/xlink">
    <!-- Generator: Sketch 49.3 (51167) - http://www.bohemiancoding.com/sketch -->
    <title>Group 10</title>
    <desc>Created with Sketch.</desc>
    <defs></defs>
    <g id="Mock-ups" stroke="none" stroke-width="1" fill="none" fill-rule="evenodd">
        <g id="About-Me-Copy" transform="translate(-562.000000, -3257.000000)">
            <g id="Group-10" transform="translate(562.000000, 3257.000000)">
                <rect id="Rectangle-7" fill="#DFF7FE" x="0" y="0" width="471" height="157"></rect>
                <g id="Group-6" transform="translate(26.000000, 44.000000)" fill="#4A4A4A">
                    <g id="noun_usability-testing_995627" fill-rule="nonzero">
                        <g id="Group">
                            <path d="M83.9552239,0.134482759 L6.04477612,0.134482759 C3.2238806,0.134482759 0.940298507,2.42068966 0.940298507,5.24482759 L0.940298507,55.0034483 C0.940298507,57.8275862 3.2238806,60.1137931 6.04477612,60.1137931 L33.3134328,60.1137931 L33.3134328,70.4689655 L28.7462687,70.4689655 C27.4029851,70.4689655 26.3283582,71.5448276 26.3283582,72.8896552 L26.3283582,76.9241379 L63.6716418,76.9241379 L63.6716418,72.8896552 C63.6716418,71.5448276 62.5970149,70.4689655 61.2537313,70.4689655 L56.6865672,70.4689655 L56.6865672,60.1137931 L83.9552239,60.1137931 C86.7761194,60.1137931 89.0597015,57.8275862 89.0597015,55.0034483 L89.0597015,5.24482759 C89.0597015,2.2862069 86.7761194,0.134482759 83.9552239,0.134482759 Z M6.04477612,2.15172414 L83.9552239,2.15172414 C85.5671642,2.15172414 87.0447761,3.49655172 87.0447761,5.24482759 L87.0447761,51.1034483 L3.08955224,51.1034483 L3.08955224,5.11034483 C3.08955224,3.49655172 4.43283582,2.15172414 6.04477612,2.15172414 Z M61.2537313,72.2172414 C61.3880597,72.2172414 61.6567164,72.3517241 61.6567164,72.6206897 L61.6567164,74.637931 L28.3432836,74.637931 L28.3432836,72.6206897 C28.3432836,72.4862069 28.4776119,72.2172414 28.7462687,72.2172414 L61.2537313,72.2172414 Z M54.8059701,70.2 L35.3283582,70.2 L35.3283582,59.8448276 L54.8059701,59.8448276 L54.8059701,70.2 Z M83.9552239,57.962069 L6.04477612,57.962069 C4.43283582,57.962069 2.95522388,56.6172414 2.95522388,54.8689655 L2.95522388,53.1206897 L86.9104478,53.1206897 L86.9104478,54.8689655 C87.0447761,56.6172414 85.5671642,57.962069 83.9552239,57.962069 Z" id="Shape"></path>
                            <rect id="Rectangle-path" x="30.358209" y="12.237931" width="35.8656716" height="2.01724138"></rect>
                            <rect id="Rectangle-path" x="30.358209" y="17.4827586" width="28.0746269" height="2.01724138"></rect>
                            <polygon id="Shape" points="21.8955224 13.8517241 20.5522388 12.3724138 15.7164179 17.2137931 14.238806 15.7344828 12.8955224 17.0793103 15.7164179 20.037931"></polygon>
                            <path d="M17.4626866,24.2068966 C22.0298507,24.2068966 25.7910448,20.4413793 25.7910448,15.8689655 C25.7910448,11.2965517 22.0298507,7.53103448 17.4626866,7.53103448 C12.8955224,7.53103448 9.13432836,11.2965517 9.13432836,15.8689655 C9.13432836,20.4413793 12.8955224,24.2068966 17.4626866,24.2068966 Z M17.4626866,9.54827586 C20.9552239,9.54827586 23.7761194,12.3724138 23.7761194,15.8689655 C23.7761194,19.3655172 20.9552239,22.1896552 17.4626866,22.1896552 C13.9701493,22.1896552 11.1492537,19.3655172 11.1492537,15.8689655 C11.1492537,12.3724138 13.9701493,9.54827586 17.4626866,9.54827586 Z" id="Shape"></path>
                            <rect id="Rectangle-path" x="30.358209" y="34.2931034" width="35.8656716" height="2.01724138"></rect>
                            <rect id="Rectangle-path" x="30.358209" y="39.537931" width="28.0746269" height="2.01724138"></rect>
                            <path d="M17.4626866,46.1275862 C22.0298507,46.1275862 25.7910448,42.362069 25.7910448,37.7896552 C25.7910448,33.2172414 22.0298507,29.4517241 17.4626866,29.4517241 C12.8955224,29.4517241 9.13432836,33.2172414 9.13432836,37.7896552 C9.13432836,42.4965517 12.8955224,46.1275862 17.4626866,46.1275862 Z M17.4626866,31.6034483 C20.9552239,31.6034483 23.7761194,34.4275862 23.7761194,37.9241379 C23.7761194,41.4206897 20.9552239,44.2448276 17.4626866,44.2448276 C13.9701493,44.2448276 11.1492537,41.4206897 11.1492537,37.9241379 C11.1492537,34.4275862 13.9701493,31.6034483 17.4626866,31.6034483 Z" id="Shape"></path>
                            <polygon id="Shape" points="15.3134328 41.4206897 17.4626866 39.2689655 19.4776119 41.4206897 20.9552239 39.9413793 18.8059701 37.9241379 20.9552239 35.7724138 19.4776119 34.4275862 17.4626866 36.4448276 15.3134328 34.4275862 13.9701493 35.7724138 15.9850746 37.9241379 13.9701493 39.9413793"></polygon>
                            <path d="M71.8656716,32.5448276 C72,32.9482759 72.4029851,33.2172414 72.8059701,33.2172414 C72.8059701,33.2172414 72.8059701,33.2172414 72.8059701,33.2172414 C73.2089552,33.2172414 73.6119403,32.9482759 73.7462687,32.5448276 L75.2238806,28.3758621 L79.7910448,32.9482759 C79.9253731,33.0827586 80.1940299,33.2172414 80.4626866,33.2172414 C80.7313433,33.2172414 81,33.0827586 81.1343284,32.9482759 C81.5373134,32.5448276 81.5373134,31.8724138 81.1343284,31.4689655 L76.7014925,26.8965517 L80.8656716,25.4172414 C81.2686567,25.2827586 81.5373134,24.8793103 81.5373134,24.4758621 C81.5373134,24.0724138 81.2686567,23.6689655 80.8656716,23.5344828 L69.5820896,19.9034483 C69.1791045,19.7689655 68.7761194,19.9034483 68.5074627,20.1724138 C68.238806,20.4413793 68.1044776,20.8448276 68.238806,21.2482759 L71.8656716,32.5448276 Z M77.3731343,24.6103448 L74.5522388,25.5517241 C74.5522388,25.5517241 74.5522388,25.5517241 74.5522388,25.5517241 C74.4179104,25.5517241 74.2835821,25.6862069 74.1492537,25.8206897 C74.1492537,25.8206897 74.1492537,25.8206897 74.1492537,25.8206897 C74.0149254,25.9551724 74.0149254,26.0896552 73.880597,26.2241379 C73.880597,26.2241379 73.880597,26.2241379 73.880597,26.2241379 L72.8059701,29.0482759 L70.6567164,22.4586207 L77.3731343,24.6103448 Z" id="Shape"></path>
                        </g>
                    </g>
                    <text id="Prototyping-&amp;-Usabil" font-family="Lato-Regular, Lato" font-size="18" font-weight="normal">
                        <tspan x="118.105" y="33">Prototyping &amp; </tspan>
                        <tspan x="107.62" y="55">Usability Testing</tspan>
                    </text>
                </g>
                <g id="Group-7" transform="translate(309.000000, 43.000000)" fill="#4A4A4A">
                    <text id="Visual-Design" font-family="Lato-Regular, Lato" font-size="18" font-weight="normal">
                        <tspan x="42.256" y="45">Visual Design</tspan>
                    </text>
                    <g id="noun_design_1153575" fill-rule="nonzero">
                        <path d="M13.5009074,0 C13.5009074,0 0,31.9502222 0,54.0888889 C0,76.1724444 13.5009074,80 13.5009074,80 C13.5009074,80 27,76.1724444 27,54.0888889 C27,31.9502222 13.5009074,0 13.5009074,0 Z" id="Shape"></path>
                    </g>
                </g>
            </g>
        </g>
    </g>
</svg>