<?xml version="1.0" encoding="UTF-8"?>
<svg width="25px" height="25px" viewBox="0 0 25 25" version="1.1" xmlns="http://www.w3.org/2000/svg" xmlns:xlink="http://www.w3.org/1999/xlink">
    <!-- Generator: Sketch 49.3 (51167) - http://www.bohemiancoding.com/sketch -->
    <title>twitter-logo-button</title>
    <desc>Created with Sketch.</desc>
    <defs></defs>
    <g id="Symbols" stroke="none" stroke-width="1" fill="none" fill-rule="evenodd">
        <g id="Footer" transform="translate(-635.000000, 0.000000)" fill="#4A4A4A" fill-rule="nonzero">
            <g id="twitter-logo-button" transform="translate(635.000000, 0.000000)">
                <path d="M12.5,0 C5.6075284,0 0,5.6075284 0,12.5 C0,19.3919681 5.6075284,25 12.5,25 C19.3919681,25 25,19.3919681 25,12.5 C25,5.6075284 19.3929751,0 12.5,0 Z M17.6660647,9.36326278 C17.6715218,9.48483566 17.6744984,9.60739693 17.6744984,9.72995821 C17.6744984,13.4616525 14.8239283,17.7631579 9.60846652,17.7631579 C8.00756334,17.7631579 6.51728967,17.2971285 5.26315789,16.4955383 C5.484913,16.5217308 5.71063687,16.5350742 5.93933733,16.5350742 C7.26788357,16.5350742 8.48976907,16.0833766 9.46013369,15.3262642 C8.21989262,15.303531 7.17263305,14.4871148 6.81197095,13.3647896 C6.98461251,13.3974067 7.16271112,13.415692 7.34477851,13.415692 C7.60324475,13.415692 7.85426955,13.3820865 8.09189974,13.3173465 C6.79510367,13.0583864 5.8182898,11.9172816 5.8182898,10.5483512 C5.8182898,10.5364905 5.8182898,10.5241355 5.8187859,10.5127689 C6.20078015,10.7237918 6.6378411,10.851295 7.10218736,10.8656268 C6.34216763,10.3600615 5.84160633,9.49521383 5.84160633,8.51571203 C5.84160633,7.9977918 5.98100943,7.51248869 6.22508887,7.095385 C7.62259251,8.80432406 9.71215068,9.92813188 12.0676165,10.0467396 C12.0189991,9.83967032 11.9946904,9.62469389 11.9946904,9.40279868 C11.9946904,7.84360181 13.263705,6.57894737 14.8288893,6.57894737 C15.6444718,6.57894737 16.3801828,6.92192126 16.8981075,7.4704818 C17.5445211,7.34396694 18.1497588,7.10971676 18.6989375,6.78502822 C18.485616,7.44478347 18.037641,7.9977918 17.4507589,8.34768448 C18.0247425,8.27948506 18.5724329,8.12826026 19.0789474,7.90339985 C18.7009219,8.46876315 18.2202044,8.96642123 17.6660647,9.36326278 Z" id="Shape"></path>
            </g>
        </g>
    </g>
</svg>