<?xml version="1.0" encoding="UTF-8"?>
<svg width="4242px" height="1309px" viewBox="0 0 4242 1309" version="1.1" xmlns="http://www.w3.org/2000/svg" xmlns:xlink="http://www.w3.org/1999/xlink">
    <!-- Generator: Sketch 49.3 (51167) - http://www.bohemiancoding.com/sketch -->
    <title>Group 2</title>
    <desc>Created with Sketch.</desc>
    <defs></defs>
    <g id="test" stroke="none" stroke-width="1" fill="none" fill-rule="evenodd">
        <g id="Artboard-2" transform="translate(-266.000000, -491.000000)">
            <g id="Group-2" transform="translate(266.000000, 491.000000)">
                <ellipse id="Oval-4" fill-opacity="0.1075351" fill="#113764" cx="318.5" cy="159.5" rx="318.5" ry="159.5"></ellipse>
                <text id="Returning-User" font-family="Lato-Regular, Lato" font-size="50" font-weight="normal" fill="#4A4A4A">
                    <tspan x="152" y="179">Returning User</tspan>
                </text>
                <ellipse id="Oval-4" fill-opacity="0.11" fill="#113764" cx="3923.5" cy="624.5" rx="318.5" ry="159.5"></ellipse>
                <rect id="Rectangle-12" fill-opacity="0.163185009" fill="#7ED321" x="1133" y="0" width="637" height="319"></rect>
                <rect id="Rectangle-12" fill-opacity="0.163185009" fill="#7ED321" x="1133" y="495" width="637" height="319"></rect>
                <rect id="Rectangle-12" fill-opacity="0.163185009" fill="#7ED321" x="1133" y="990" width="637" height="319"></rect>
                <rect id="Rectangle-12" fill-opacity="0.122735507" fill="#D0021B" x="2101" y="91" width="637" height="319"></rect>
                <rect id="Rectangle-12" fill-opacity="0.122735507" fill="#D0021B" x="2101" y="495" width="637" height="319"></rect>
                <rect id="Rectangle-12" fill-opacity="0.122735507" fill="#D0021B" x="2101" y="888" width="637" height="319"></rect>
                <circle id="Oval-5" fill-opacity="0.208842844" fill="#F5A623" cx="3133.5" cy="205.5" r="143.5"></circle>
                <circle id="Oval-5" fill-opacity="0.208842844" fill="#F5A623" cx="3155.5" cy="626.5" r="143.5"></circle>
                <g id="Group" transform="translate(688.000000, 112.000000)">
                    <path d="M0.153097345,44 L345.846903,44" id="Line-3" stroke="#979797" stroke-width="15" stroke-linecap="square"></path>
                    <polygon id="Triangle" fill="#979797" points="394 39.5 343 79 343 0"></polygon>
                </g>
                <g id="Group" transform="translate(1776.000000, 190.000000)">
                    <path d="M0.5,442.5 L248.905752,442.5" id="Line-3" stroke="#979797" stroke-width="15" stroke-linecap="square"></path>
                    <polygon id="Triangle" fill="#979797" points="277 443.5 249 465 249 422"></polygon>
                    <path d="M1512.5,440.5 L1760.90575,440.5" id="Line-3" stroke="#979797" stroke-width="15" stroke-linecap="square"></path>
                    <polygon id="Triangle" fill="#979797" points="1789 441.5 1761 463 1761 420"></polygon>
                    <polygon id="Triangle" fill="#979797" points="291 21.5 263 43 263 0"></polygon>
                </g>
                <g id="Group" transform="translate(1444.500000, 400.500000) rotate(90.000000) translate(-1444.500000, -400.500000) translate(1382.000000, 390.000000)">
                    <path d="M0.998748923,11.5 L100.913274,11.5" id="Line-3" stroke="#979797" stroke-width="10" stroke-linecap="square"></path>
                    <polygon id="Triangle" fill="#979797" points="125 10.5 101 21 101 0"></polygon>
                </g>
                <g id="Group" transform="translate(1444.500000, 901.500000) rotate(90.000000) translate(-1444.500000, -901.500000) translate(1382.000000, 891.000000)">
                    <path d="M0.998748923,11.5 L100.913274,11.5" id="Line-3" stroke="#979797" stroke-width="10" stroke-linecap="square"></path>
                    <polygon id="Triangle" fill="#979797" points="125 10.5 101 21 101 0"></polygon>
                </g>
                <path d="M1919,218.485865 L1919,1050.5" id="Line-3" stroke="#979797" stroke-width="15" stroke-linecap="square"></path>
                <path d="M1916.5,211.5 L2042,211.5" id="Line" stroke="#979797" stroke-width="10" stroke-linecap="square"></path>
                <polygon id="Triangle" fill="#979797" points="2978 211.5 2950 233 2950 190"></polygon>
                <path d="M2743,212 L2952.5,212" id="Line" stroke="#979797" stroke-width="15" stroke-linecap="square"></path>
                <path d="M3285.35656,210 L3481.5,210" id="Line" stroke="#979797" stroke-width="15" stroke-linecap="square"></path>
                <polygon id="Triangle" fill="#979797" points="2978 614.5 2950 636 2950 593"></polygon>
                <path d="M2743,615 L2952.5,615" id="Line" stroke="#979797" stroke-width="15" stroke-linecap="square"></path>
                <polygon id="Triangle" fill="#979797" points="2067 1055.5 2039 1077 2039 1034"></polygon>
                <path d="M1917,1055 L2042.5,1055" id="Line" stroke="#979797" stroke-width="10" stroke-linecap="square"></path>
                <path d="M3482.5,1049.5 L3482.5,644.5" id="Line-2" stroke="#979797" stroke-width="15" stroke-linecap="square"></path>
                <path d="M3481.5,622.5 L3481.5,212.5" id="Line-2" stroke="#979797" stroke-width="15" stroke-linecap="square"></path>
                <path d="M2744.5,1049.5 L3477.50273,1049.5" id="Line-3" stroke="#979797" stroke-width="15" stroke-linecap="square"></path>
                <text id="Homepage" font-family="Lato-Regular, Lato" font-size="50" font-weight="normal" fill="#4A4A4A">
                    <tspan x="1333" y="179">Homepage</tspan>
                </text>
                <text id="Sign-In-Using-Twitte" font-family="Lato-Regular, Lato" font-size="50" font-weight="normal" fill="#4A4A4A">
                    <tspan x="2193" y="270">Sign In Using Twitter</tspan>
                </text>
                <text id="Sign-In-Using-Facebo" font-family="Lato-Regular, Lato" font-size="50" font-weight="normal" fill="#4A4A4A">
                    <tspan x="2168" y="674">Sign In Using Facebook</tspan>
                </text>
                <text id="Sign-In-Using-Email" font-family="Lato-Regular, Lato" font-size="50" font-weight="normal" fill="#4A4A4A">
                    <tspan x="2214" y="1067">Sign In Using Email</tspan>
                </text>
                <text id="Auth.-with-Twitter" font-family="Lato-Regular, Lato" font-size="50" font-weight="normal" fill="#4A4A4A">
                    <tspan x="3074.575" y="165">Auth. </tspan>
                    <tspan x="3085.225" y="225">with </tspan>
                    <tspan x="3051.875" y="285">Twitter</tspan>
                </text>
                <text id="Dashboard" font-family="Lato-Regular, Lato" font-size="50" font-weight="normal" fill="#4A4A4A">
                    <tspan x="3803" y="644">Dashboard</tspan>
                </text>
                <text id="Auth.-with-Facebook" font-family="Lato-Regular, Lato" font-size="50" font-weight="normal" fill="#4A4A4A">
                    <tspan x="3042.475" y="616">Auth. with </tspan>
                    <tspan x="3049.025" y="676">Facebook</tspan>
                </text>
                <text id="Sign-In" font-family="Lato-Regular, Lato" font-size="50" font-weight="normal" fill="#4A4A4A">
                    <tspan x="1379" y="674">Sign In</tspan>
                </text>
                <text id="Forgot-Password?" font-family="Lato-Regular, Lato" font-size="50" font-weight="normal" fill="#4A4A4A">
                    <tspan x="1256" y="1169">Forgot Password?</tspan>
                </text>
            </g>
        </g>
    </g>
</svg>