<?xml version="1.0" encoding="UTF-8"?>
<svg width="82px" height="113px" viewBox="0 0 82 113" version="1.1" xmlns="http://www.w3.org/2000/svg" xmlns:xlink="http://www.w3.org/1999/xlink">
    <!-- Generator: Sketch 49.3 (51167) - http://www.bohemiancoding.com/sketch -->
    <title>Group 8</title>
    <desc>Created with Sketch.</desc>
    <defs></defs>
    <g id="Mock-ups" stroke="none" stroke-width="1" fill="none" fill-rule="evenodd">
        <g id="About-Me-Copy" transform="translate(-179.000000, -3301.000000)" fill="#4A4A4A">
            <g id="Group-8" transform="translate(168.000000, 3301.000000)">
                <g id="noun_user-research_1401998" transform="translate(13.000000, 0.000000)" fill-rule="nonzero">
                    <g id="Group">
                        <path d="M40.8000504,35.9 C44.2738986,32.9794467 45.5512413,28.198662 43.9969738,23.9346895 C42.4427062,19.6707169 38.3884588,16.8333501 33.850035,16.8333501 C29.3116112,16.8333501 25.2573637,19.6707169 23.7030962,23.9346895 C22.1488287,28.198662 23.4261714,32.9794467 26.9000195,35.9 C21.5153862,38.5345636 18.1009477,44.0054131 18.1,50 L22.1000089,50 C22.05726,44.0477249 26.4903388,39.0121029 32.4000318,38.3 L35.3000382,38.3 C41.1700041,39.0586154 45.5488786,44.0814309 45.5000609,50 L49.50014,50 C49.5178919,44.0278348 46.145801,38.5627341 40.8000504,35.9 Z M27,27.6 C27.0239804,24.0327018 29.8006194,21.0903787 33.360546,20.8599153 C36.9204727,20.629452 40.0533064,23.1892064 40.5370401,26.723636 C41.0207737,30.2580657 38.690937,33.5654591 35.2,34.3 L32.5,34.3 C29.3175435,33.6406816 27.026625,30.8499263 27,27.6 Z" id="Shape"></path>
                        <path d="M33.5,0.5 C18.8124598,0.507117647 5.89740075,10.2204491 1.81581091,24.3294715 C-2.26577894,38.4384938 3.46861222,53.5469126 15.8838483,61.3945747 C28.2990844,69.2422367 44.4065957,67.9400693 55.4,58.2 L76,78.9 C76.5180351,79.4180351 77.2730877,79.6203508 77.9807368,79.4307368 C78.6883859,79.2411228 79.2411228,78.6883859 79.4307368,77.9807368 C79.6203508,77.2730877 79.4180351,76.5180351 78.9,76 L58.2,55.4 C66.8218922,45.6813481 68.9391277,31.80823 63.6086121,19.9602419 C58.2780965,8.11225381 46.4918893,0.49441868 33.5,0.5 Z M4.5,33.5 C4.49798447,20.4435519 13.2213088,8.99561429 25.8103989,5.53358412 C38.399489,2.07155395 51.7498802,7.44916645 58.4243602,18.6706707 C65.0988402,29.892175 63.4514849,44.1903526 54.4,53.6 L54,54 L53.7,54.5 C45.3151207,62.6405003 32.8633108,64.9526409 22.1149675,60.3649334 C11.3666241,55.7772258 4.42225176,45.186227 4.5,33.5 Z" id="Shape"></path>
                    </g>
                </g>
                <text id="User-Research" font-family="Lato-Regular, Lato" font-size="18" font-weight="normal">
                    <tspan x="27.681" y="90">User </tspan>
                    <tspan x="9.969" y="112">Research</tspan>
                </text>
            </g>
        </g>
    </g>
</svg>