<?xml version="1.0" encoding="UTF-8"?>
<svg width="4242px" height="1520px" viewBox="0 0 4242 1520" version="1.1" xmlns="http://www.w3.org/2000/svg" xmlns:xlink="http://www.w3.org/1999/xlink">
    <!-- Generator: Sketch 49.3 (51167) - http://www.bohemiancoding.com/sketch -->
    <title>Group 2</title>
    <desc>Created with Sketch.</desc>
    <defs></defs>
    <g id="test" stroke="none" stroke-width="1" fill="none" fill-rule="evenodd">
        <g id="Artboard-2" transform="translate(-266.000000, -280.000000)">
            <g id="Group-2" transform="translate(266.000000, 269.000000)">
                <ellipse id="Oval-4" fill-opacity="0.1075351" fill="#113764" cx="318.5" cy="381.5" rx="318.5" ry="159.5"></ellipse>
                <text id="Returning-User" font-family="Lato-Regular, Lato" font-size="50" font-weight="normal" fill="#4A4A4A">
                    <tspan x="152" y="401">Returning User</tspan>
                </text>
                <ellipse id="Oval-4" fill-opacity="0.11" fill="#113764" cx="3923.5" cy="846.5" rx="318.5" ry="159.5"></ellipse>
                <rect id="Rectangle-12" fill-opacity="0.163185009" fill="#7ED321" x="1133" y="222" width="637" height="319"></rect>
                <rect id="Rectangle-12" fill-opacity="0.163185009" fill="#7ED321" x="1133" y="717" width="637" height="319"></rect>
                <rect id="Rectangle-12" fill-opacity="0.163185009" fill="#7ED321" x="1133" y="1212" width="637" height="319"></rect>
                <rect id="Rectangle-12" fill-opacity="0.122735507" fill="#D0021B" x="2101" y="313" width="637" height="319"></rect>
                <rect id="Rectangle-12" fill-opacity="0.122735507" fill="#D0021B" x="2101" y="717" width="637" height="319"></rect>
                <rect id="Rectangle-12" fill-opacity="0.122735507" fill="#D0021B" x="2101" y="1110" width="637" height="319"></rect>
                <circle id="Oval-5" fill-opacity="0.208842844" fill="#F5A623" cx="3133.5" cy="427.5" r="143.5"></circle>
                <circle id="Oval-5" fill-opacity="0.208842844" fill="#F5A623" cx="3155.5" cy="848.5" r="143.5"></circle>
                <g id="Group" transform="translate(688.000000, 334.000000)">
                    <path d="M0.153097345,44 L345.846903,44" id="Line-3" stroke="#979797" stroke-width="15" stroke-linecap="square"></path>
                    <polygon id="Triangle" fill="#979797" points="394 39.5 343 79 343 0"></polygon>
                </g>
                <g id="Group" transform="translate(1776.000000, 412.000000)">
                    <path d="M0.5,442.5 L248.905752,442.5" id="Line-3" stroke="#979797" stroke-width="15" stroke-linecap="square"></path>
                    <polygon id="Triangle" fill="#979797" points="277 443.5 249 465 249 422"></polygon>
                    <path d="M1512.5,440.5 L1760.90575,440.5" id="Line-3" stroke="#979797" stroke-width="15" stroke-linecap="square"></path>
                    <polygon id="Triangle" fill="#979797" points="1789 441.5 1761 463 1761 420"></polygon>
                    <polygon id="Triangle" fill="#979797" points="291 21.5 263 43 263 0"></polygon>
                </g>
                <g id="Group" transform="translate(1444.500000, 622.500000) rotate(90.000000) translate(-1444.500000, -622.500000) translate(1382.000000, 612.000000)">
                    <path d="M0.998748923,11.5 L100.913274,11.5" id="Line-3" stroke="#979797" stroke-width="10" stroke-linecap="square"></path>
                    <polygon id="Triangle" fill="#979797" points="125 10.5 101 21 101 0"></polygon>
                </g>
                <g id="Group" transform="translate(1444.500000, 1123.500000) rotate(90.000000) translate(-1444.500000, -1123.500000) translate(1382.000000, 1113.000000)">
                    <path d="M0.998748923,11.5 L100.913274,11.5" id="Line-3" stroke="#979797" stroke-width="10" stroke-linecap="square"></path>
                    <polygon id="Triangle" fill="#979797" points="125 10.5 101 21 101 0"></polygon>
                </g>
                <path d="M1919,440.485865 L1919,1272.5" id="Line-3" stroke="#979797" stroke-width="15" stroke-linecap="square"></path>
                <path d="M1916.5,433.5 L2042,433.5" id="Line" stroke="#979797" stroke-width="10" stroke-linecap="square"></path>
                <polygon id="Triangle" fill="#979797" points="2978 433.5 2950 455 2950 412"></polygon>
                <path d="M2743,434 L2952.5,434" id="Line" stroke="#979797" stroke-width="15" stroke-linecap="square"></path>
                <path d="M3285.35656,432 L3481.5,432" id="Line" stroke="#979797" stroke-width="15" stroke-linecap="square"></path>
                <polygon id="Triangle" fill="#979797" points="2978 836.5 2950 858 2950 815"></polygon>
                <path d="M2743,837 L2952.5,837" id="Line" stroke="#979797" stroke-width="15" stroke-linecap="square"></path>
                <polygon id="Triangle" fill="#979797" points="2067 1277.5 2039 1299 2039 1256"></polygon>
                <path d="M1917,1277 L2042.5,1277" id="Line" stroke="#979797" stroke-width="10" stroke-linecap="square"></path>
                <path d="M3482.5,1271.5 L3482.5,866.5" id="Line-2" stroke="#979797" stroke-width="15" stroke-linecap="square"></path>
                <path d="M3481.5,844.5 L3481.5,434.5" id="Line-2" stroke="#979797" stroke-width="15" stroke-linecap="square"></path>
                <path d="M2744.5,1271.5 L3477.50273,1271.5" id="Line-3" stroke="#979797" stroke-width="15" stroke-linecap="square"></path>
                <text id="Homepage" font-family="Lato-Regular, Lato" font-size="50" font-weight="normal" fill="#4A4A4A">
                    <tspan x="1333" y="401">Homepage</tspan>
                </text>
                <text id="Sign-In-Using-Twitte" font-family="Lato-Regular, Lato" font-size="50" font-weight="normal" fill="#4A4A4A">
                    <tspan x="2193" y="492">Sign In Using Twitter</tspan>
                </text>
                <text id="Sign-In-Using-Facebo" font-family="Lato-Regular, Lato" font-size="50" font-weight="normal" fill="#4A4A4A">
                    <tspan x="2168" y="896">Sign In Using Facebook</tspan>
                </text>
                <text id="Sign-In-Using-Email" font-family="Lato-Regular, Lato" font-size="50" font-weight="normal" fill="#4A4A4A">
                    <tspan x="2214" y="1289">Sign In Using Email</tspan>
                </text>
                <text id="Auth.-with-Twitter" font-family="Lato-Regular, Lato" font-size="50" font-weight="normal" fill="#4A4A4A">
                    <tspan x="3074.575" y="387">Auth. </tspan>
                    <tspan x="3085.225" y="447">with </tspan>
                    <tspan x="3051.875" y="507">Twitter</tspan>
                </text>
                <text id="Dashboard" font-family="Lato-Regular, Lato" font-size="50" font-weight="normal" fill="#4A4A4A">
                    <tspan x="3803" y="866">Dashboard</tspan>
                </text>
                <text id="Auth.-with-Facebook" font-family="Lato-Regular, Lato" font-size="50" font-weight="normal" fill="#4A4A4A">
                    <tspan x="3042.475" y="838">Auth. with </tspan>
                    <tspan x="3049.025" y="898">Facebook</tspan>
                </text>
                <text id="Sign-In" font-family="Lato-Regular, Lato" font-size="50" font-weight="normal" fill="#4A4A4A">
                    <tspan x="1379" y="896">Sign In</tspan>
                </text>
                <text id="Forgot-Password?" font-family="Lato-Regular, Lato" font-size="50" font-weight="normal" fill="#4A4A4A">
                    <tspan x="1256" y="1391">Forgot Password?</tspan>
                </text>
                <text id="Returning-User-Homep" font-family="Lato-Black, Lato" font-size="50" font-weight="700" fill="#4A4A4A">
                    <tspan x="22" y="49">Returning User Homepage &amp; Sign In Flow</tspan>
                </text>
            </g>
        </g>
    </g>
</svg>