<?xml version="1.0" encoding="UTF-8"?>
<svg width="101px" height="107px" viewBox="0 0 101 107" version="1.1" xmlns="http://www.w3.org/2000/svg" xmlns:xlink="http://www.w3.org/1999/xlink">
    <!-- Generator: Sketch 49.3 (51167) - http://www.bohemiancoding.com/sketch -->
    <title>Group 7</title>
    <desc>Created with Sketch.</desc>
    <defs></defs>
    <g id="Mock-ups" stroke="none" stroke-width="1" fill="none" fill-rule="evenodd">
        <g id="About-Me-Copy" transform="translate(-313.000000, -3301.000000)" fill="#4A4A4A">
            <g id="Group-7" transform="translate(306.000000, 3301.000000)">
                <text id="Wireframing" font-family="Lato-Regular, Lato" font-size="18" font-weight="normal">
                    <tspan x="7.663" y="103">Wireframing</tspan>
                </text>
                <g id="noun_Wireframe_986238" transform="translate(18.000000, 0.000000)" fill-rule="nonzero">
                    <g id="Group">
                        <path d="M0,0.0266666667 L0,77.9733333 L80,77.9733333 L80,0.0266666667 L0,0.0266666667 Z M78.1538462,1.87666667 L78.1538462,8.29 L1.84615385,8.29 L1.84615385,1.87666667 L78.1538462,1.87666667 Z M1.84615385,76.1233333 L1.84615385,10.14 L78.1538462,10.14 L78.1538462,76.1233333 L1.84615385,76.1233333 Z" id="Shape"></path>
                        <rect id="Rectangle-path" x="4.92307692" y="4.22" width="1.84615385" height="1.85"></rect>
                        <rect id="Rectangle-path" x="9.23076923" y="4.22" width="1.84615385" height="1.85"></rect>
                        <rect id="Rectangle-path" x="13.4153846" y="4.22" width="1.84615385" height="1.85"></rect>
                        <path d="M41.6,41.4666667 L73.9692308,41.4666667 L73.9692308,17.7866667 L41.6,17.7866667 L41.6,41.4666667 Z M59.4461538,29.6266667 L72.2461538,20.5 L72.2461538,38.7533333 L59.4461538,29.6266667 Z M70.2769231,39.6166667 L45.4153846,39.6166667 L57.8461538,30.7366667 L70.2769231,39.6166667 Z M57.8461538,28.5166667 L45.4153846,19.6366667 L70.2769231,19.6366667 L57.8461538,28.5166667 Z M56.2461538,29.6266667 L43.4461538,38.7533333 L43.4461538,20.5 L56.2461538,29.6266667 Z" id="Shape"></path>
                        <path d="M6.03076923,41.4666667 L38.4,41.4666667 L38.4,17.7866667 L6.03076923,17.7866667 L6.03076923,41.4666667 Z M23.7538462,29.6266667 L36.5538462,20.5 L36.5538462,38.7533333 L23.7538462,29.6266667 Z M34.5846154,39.6166667 L9.72307692,39.6166667 L22.1538462,30.7366667 L34.5846154,39.6166667 Z M22.1538462,28.5166667 L9.72307692,19.6366667 L34.5846154,19.6366667 L22.1538462,28.5166667 Z M20.5538462,29.6266667 L7.75384615,38.7533333 L7.75384615,20.5 L20.5538462,29.6266667 Z" id="Shape"></path>
                        <path d="M41.6,69.34 L73.9692308,69.34 L73.9692308,45.66 L41.6,45.66 L41.6,69.34 Z M59.4461538,57.5 L72.2461538,48.3733333 L72.2461538,66.6266667 L59.4461538,57.5 Z M70.2769231,67.49 L45.4153846,67.49 L57.8461538,58.61 L70.2769231,67.49 Z M57.8461538,56.39 L45.4153846,47.51 L70.2769231,47.51 L57.8461538,56.39 Z M56.2461538,57.5 L43.4461538,66.6266667 L43.4461538,48.3733333 L56.2461538,57.5 Z" id="Shape"></path>
                        <path d="M6.03076923,69.34 L38.4,69.34 L38.4,45.66 L6.03076923,45.66 L6.03076923,69.34 Z M23.7538462,57.5 L36.5538462,48.3733333 L36.5538462,66.6266667 L23.7538462,57.5 Z M34.5846154,67.49 L9.72307692,67.49 L22.1538462,58.61 L34.5846154,67.49 Z M22.1538462,56.39 L9.72307692,47.51 L34.5846154,47.51 L22.1538462,56.39 Z M20.5538462,57.5 L7.75384615,66.6266667 L7.75384615,48.3733333 L20.5538462,57.5 Z" id="Shape"></path>
                    </g>
                </g>
            </g>
        </g>
    </g>
</svg>